<svg id="visual" viewBox="0 0 900 600" width="900" height="600" xmlns="http://www.w3.org/2000/svg" xmlns:xlink="http://www.w3.org/1999/xlink" version="1.1"><rect x="0" y="0" width="900" height="600" fill="#783e56"></rect><path d="M0 384L21.5 392.7C43 401.3 86 418.7 128.8 418.5C171.7 418.3 214.3 400.7 257.2 397.3C300 394 343 405 385.8 408.2C428.7 411.3 471.3 406.7 514.2 403.3C557 400 600 398 642.8 395.3C685.7 392.7 728.3 389.3 771.2 395.7C814 402 857 418 878.5 426L900 434L900 601L878.5 601C857 601 814 601 771.2 601C728.3 601 685.7 601 642.8 601C600 601 557 601 514.2 601C471.3 601 428.7 601 385.8 601C343 601 300 601 257.2 601C214.3 601 171.7 601 128.8 601C86 601 43 601 21.5 601L0 601Z" fill="#fa7268"></path><path d="M0 464L21.5 452.2C43 440.3 86 416.7 128.8 413.7C171.7 410.7 214.3 428.3 257.2 434.5C300 440.7 343 435.3 385.8 433.5C428.7 431.7 471.3 433.3 514.2 437.8C557 442.3 600 449.7 642.8 455.8C685.7 462 728.3 467 771.2 460.2C814 453.3 857 434.7 878.5 425.3L900 416L900 601L878.5 601C857 601 814 601 771.2 601C728.3 601 685.7 601 642.8 601C600 601 557 601 514.2 601C471.3 601 428.7 601 385.8 601C343 601 300 601 257.2 601C214.3 601 171.7 601 128.8 601C86 601 43 601 21.5 601L0 601Z" fill="#ef5f67"></path><path d="M0 478L21.5 473.8C43 469.7 86 461.3 128.8 460.7C171.7 460 214.3 467 257.2 468.8C300 470.7 343 467.3 385.8 470C428.7 472.7 471.3 481.3 514.2 478.3C557 475.3 600 460.7 642.8 458.7C685.7 456.7 728.3 467.3 771.2 468C814 468.7 857 459.3 878.5 454.7L900 450L900 601L878.5 601C857 601 814 601 771.2 601C728.3 601 685.7 601 642.8 601C600 601 557 601 514.2 601C471.3 601 428.7 601 385.8 601C343 601 300 601 257.2 601C214.3 601 171.7 601 128.8 601C86 601 43 601 21.5 601L0 601Z" fill="#e34c67"></path><path d="M0 513L21.5 512C43 511 86 509 128.8 505C171.7 501 214.3 495 257.2 497.7C300 500.3 343 511.7 385.8 511C428.7 510.3 471.3 497.7 514.2 496.3C557 495 600 505 642.8 514.2C685.7 523.3 728.3 531.7 771.2 533.3C814 535 857 530 878.5 527.5L900 525L900 601L878.5 601C857 601 814 601 771.2 601C728.3 601 685.7 601 642.8 601C600 601 557 601 514.2 601C471.3 601 428.7 601 385.8 601C343 601 300 601 257.2 601C214.3 601 171.7 601 128.8 601C86 601 43 601 21.5 601L0 601Z" fill="#d53867"></path><path d="M0 551L21.5 552.7C43 554.3 86 557.7 128.8 559.3C171.7 561 214.3 561 257.2 559C300 557 343 553 385.8 551.5C428.7 550 471.3 551 514.2 548.3C557 545.7 600 539.3 642.8 539.2C685.7 539 728.3 545 771.2 546C814 547 857 543 878.5 541L900 539L900 601L878.5 601C857 601 814 601 771.2 601C728.3 601 685.7 601 642.8 601C600 601 557 601 514.2 601C471.3 601 428.7 601 385.8 601C343 601 300 601 257.2 601C214.3 601 171.7 601 128.8 601C86 601 43 601 21.5 601L0 601Z" fill="#c62368"></path></svg>